<?xml version="1.0" encoding="UTF-8" standalone="no"?>
<svg
   width="132.06784mm"
   height="152.49881mm"
   viewBox="0 0 132.06784 152.49881"
   version="1.1"
   id="svg8"
   inkscape:version="1.2.1 (9c6d41e410, 2022-07-14)"
   sodipodi:docname="logo.svg"
   inkscape:export-filename="C:\Users\apdev\Documents\github\RStudio\sortable\man\figures\sortable-logo.png"
   inkscape:export-xdpi="46.16"
   inkscape:export-ydpi="46.16"
   xmlns:inkscape="http://www.inkscape.org/namespaces/inkscape"
   xmlns:sodipodi="http://sodipodi.sourceforge.net/DTD/sodipodi-0.dtd"
   xmlns="http://www.w3.org/2000/svg"
   xmlns:svg="http://www.w3.org/2000/svg"
   xmlns:rdf="http://www.w3.org/1999/02/22-rdf-syntax-ns#"
   xmlns:cc="http://creativecommons.org/ns#"
   xmlns:dc="http://purl.org/dc/elements/1.1/">
  <defs
     id="defs2">
    <clipPath
       clipPathUnits="userSpaceOnUse"
       id="clipPath842">
      <path
         sodipodi:type="star"
         style="opacity:1;fill:none;fill-opacity:0.97979796;stroke:#ffffff;stroke-width:3.11897802;stroke-miterlimit:4;stroke-dasharray:none;stroke-dashoffset:0;stroke-opacity:1"
         id="path844"
         sodipodi:sides="6"
         sodipodi:cx="82.041534"
         sodipodi:cy="193.5974"
         sodipodi:r1="73.940002"
         sodipodi:r2="64.03392"
         sodipodi:arg1="0.52359878"
         sodipodi:arg2="1.0471976"
         inkscape:flatsided="true"
         inkscape:rounded="0"
         inkscape:randomized="0"
         d="m 146.07545,230.5674 -64.033916,36.97 -64.03392,-36.97 0,-73.94 64.033921,-36.97001 64.033925,36.97001 z"
         inkscape:transform-center-x="3.0492663e-06"
         inkscape:transform-center-y="-6.6020762e-06" />
    </clipPath>
    <clipPath
       clipPathUnits="userSpaceOnUse"
       id="clipPath831">
      <path
         sodipodi:type="star"
         style="opacity:1;fill:none;fill-opacity:0.97979796;stroke:#a71b1e;stroke-width:4;stroke-miterlimit:4;stroke-dasharray:none;stroke-dashoffset:0;stroke-opacity:1"
         id="path833"
         sodipodi:sides="6"
         sodipodi:cx="102.62011"
         sodipodi:cy="146.68599"
         sodipodi:r1="73.940002"
         sodipodi:r2="64.03392"
         sodipodi:arg1="0.52359878"
         sodipodi:arg2="1.0471976"
         inkscape:flatsided="true"
         inkscape:rounded="0"
         inkscape:randomized="0"
         d="m 166.65403,183.65599 -64.03392,36.97 -64.033921,-36.97 0,-73.94 64.033921,-36.970003 64.03392,36.970003 z"
         inkscape:transform-center-x="3.0492663e-06"
         inkscape:transform-center-y="-6.6020762e-06" />
    </clipPath>
    <clipPath
       clipPathUnits="userSpaceOnUse"
       id="clipPath868">
      <path
         sodipodi:type="star"
         style="opacity:1;fill:none;fill-opacity:0.97979796;stroke:#a71b1e;stroke-width:4;stroke-miterlimit:4;stroke-dasharray:none;stroke-dashoffset:0;stroke-opacity:1"
         id="path870"
         sodipodi:sides="6"
         sodipodi:cx="102.62011"
         sodipodi:cy="146.68599"
         sodipodi:r1="73.940002"
         sodipodi:r2="64.03392"
         sodipodi:arg1="0.52359878"
         sodipodi:arg2="1.0471976"
         inkscape:flatsided="true"
         inkscape:rounded="0"
         inkscape:randomized="0"
         d="m 166.65403,183.65599 -64.03392,36.97 -64.033921,-36.97 0,-73.94 64.033921,-36.970003 64.03392,36.970003 z"
         inkscape:transform-center-x="3.0492663e-06"
         inkscape:transform-center-y="-6.6020762e-06" />
    </clipPath>
    <clipPath
       clipPathUnits="userSpaceOnUse"
       id="clipPath885">
      <path
         sodipodi:type="star"
         style="opacity:1;fill:none;fill-opacity:0.97979796;stroke:#a71b1e;stroke-width:4;stroke-miterlimit:4;stroke-dasharray:none;stroke-dashoffset:0;stroke-opacity:1"
         id="path887"
         sodipodi:sides="6"
         sodipodi:cx="102.62011"
         sodipodi:cy="146.68599"
         sodipodi:r1="73.940002"
         sodipodi:r2="64.03392"
         sodipodi:arg1="0.52359878"
         sodipodi:arg2="1.0471976"
         inkscape:flatsided="true"
         inkscape:rounded="0"
         inkscape:randomized="0"
         d="m 166.65403,183.65599 -64.03392,36.97 -64.033921,-36.97 0,-73.94 64.033921,-36.970003 64.03392,36.970003 z"
         inkscape:transform-center-x="3.0492663e-06"
         inkscape:transform-center-y="-6.6020762e-06" />
    </clipPath>
  </defs>
  <sodipodi:namedview
     id="base"
     pagecolor="#ffffff"
     bordercolor="#666666"
     borderopacity="1.0"
     inkscape:pageopacity="0.0"
     inkscape:pageshadow="2"
     inkscape:zoom="1.4157488"
     inkscape:cx="220.73125"
     inkscape:cy="270.17505"
     inkscape:document-units="mm"
     inkscape:current-layer="layer1"
     showgrid="false"
     inkscape:window-width="1500"
     inkscape:window-height="930"
     inkscape:window-x="-6"
     inkscape:window-y="-6"
     inkscape:window-maximized="1"
     fit-margin-top="0"
     fit-margin-left="0"
     fit-margin-right="0"
     fit-margin-bottom="0"
     inkscape:document-rotation="0"
     inkscape:showpageshadow="2"
     inkscape:pagecheckerboard="0"
     inkscape:deskcolor="#d1d1d1" />
  <metadata
     id="metadata5">
    <rdf:RDF>
      <cc:Work
         rdf:about="">
        <dc:format>image/svg+xml</dc:format>
        <dc:type
           rdf:resource="http://purl.org/dc/dcmitype/StillImage" />
        <dc:title />
      </cc:Work>
    </rdf:RDF>
  </metadata>
  <g
     inkscape:label="Layer 1"
     inkscape:groupmode="layer"
     id="layer1"
     transform="translate(-36.586189,-70.436586)">
    <path
       sodipodi:type="star"
       style="opacity:1;fill:#d5e5ff;fill-opacity:0.979798;stroke:#3771c8;stroke-width:4;stroke-miterlimit:4;stroke-dasharray:none;stroke-dashoffset:0;stroke-opacity:1"
       id="path4573"
       sodipodi:sides="6"
       sodipodi:cx="102.62011"
       sodipodi:cy="146.68599"
       sodipodi:r1="73.940002"
       sodipodi:r2="64.03392"
       sodipodi:arg1="0.52359878"
       sodipodi:arg2="1.0471976"
       inkscape:flatsided="true"
       inkscape:rounded="0"
       inkscape:randomized="0"
       d="m 166.65403,183.65599 -64.03392,36.97 -64.033921,-36.97 0,-73.94 64.033921,-36.970003 64.03392,36.970003 z"
       inkscape:transform-center-x="3.0492663e-06"
       inkscape:transform-center-y="-6.6020762e-06" />
    <flowRoot
       xml:space="preserve"
       id="flowRoot835"
       style="font-style:normal;font-variant:normal;font-weight:normal;font-stretch:normal;font-size:64px;line-height:1.25;font-family:'Segoe UI';-inkscape-font-specification:'Segoe UI';letter-spacing:0px;word-spacing:0px;fill:#000000;fill-opacity:1;stroke:none"><flowRegion
         id="flowRegion837"
         style="font-style:normal;font-variant:normal;font-weight:normal;font-stretch:normal;font-size:64px;font-family:'Segoe UI';-inkscape-font-specification:'Segoe UI'"><rect
           id="rect839"
           width="366.32343"
           height="73.264687"
           x="204.09448"
           y="643.68262"
           style="font-style:normal;font-variant:normal;font-weight:normal;font-stretch:normal;font-size:64px;font-family:'Segoe UI';-inkscape-font-specification:'Segoe UI'" /></flowRegion><flowPara
         id="flowPara841" /></flowRoot>
    <rect
       style="opacity:1;vector-effect:none;fill:#72b8ff;fill-opacity:1;stroke:none;stroke-width:0.177599;stroke-linecap:butt;stroke-linejoin:miter;stroke-miterlimit:4;stroke-dasharray:none;stroke-dashoffset:0;stroke-opacity:1"
       id="rect841"
       width="92.038681"
       height="34.007046"
       x="56.535736"
       y="98.094948" />
    <rect
       y="132.07706"
       x="54.011944"
       height="34.007046"
       width="92.038681"
       id="rect843"
       style="opacity:1;vector-effect:none;fill:#629fdd;fill-opacity:1;stroke:none;stroke-width:0.177599;stroke-linecap:butt;stroke-linejoin:miter;stroke-miterlimit:4;stroke-dasharray:none;stroke-dashoffset:0;stroke-opacity:1" />
    <rect
       style="opacity:1;vector-effect:none;fill:#578dc5;fill-opacity:1;stroke:none;stroke-width:0.14764;stroke-linecap:butt;stroke-linejoin:miter;stroke-miterlimit:4;stroke-dasharray:none;stroke-dashoffset:0;stroke-opacity:1"
       id="rect845"
       width="63.54937"
       height="34.037495"
       x="66.343292"
       y="166.08746" />
    <path
       style="fill:#588fc6;fill-opacity:1;stroke:none;stroke-width:0.184859px;stroke-linecap:butt;stroke-linejoin:miter;stroke-opacity:1"
       d="m 56.535732,132.10199 89.514908,-0.0249 -0.005,4.16263 z"
       id="path849"
       inkscape:connector-curvature="0" />
    <path
       inkscape:connector-curvature="0"
       id="path851"
       d="m 129.80034,166.1126 -63.449701,-0.0265 0.0046,4.41876 z"
       style="fill:#4e7fb1;fill-opacity:1;stroke:none;stroke-width:0.160352px;stroke-linecap:butt;stroke-linejoin:miter;stroke-opacity:1" />
    <path
       inkscape:transform-center-y="-6.6020762e-06"
       inkscape:transform-center-x="3.0492663e-06"
       d="m 166.65403,183.65599 -64.03392,36.97 -64.033921,-36.97 0,-73.94 64.033921,-36.970003 64.03392,36.970003 z"
       inkscape:randomized="0"
       inkscape:rounded="0"
       inkscape:flatsided="true"
       sodipodi:arg2="1.0471976"
       sodipodi:arg1="0.52359878"
       sodipodi:r2="64.03392"
       sodipodi:r1="73.940002"
       sodipodi:cy="146.68599"
       sodipodi:cx="102.62011"
       sodipodi:sides="6"
       id="path840"
       style="opacity:1;fill:none;fill-opacity:0.979798;stroke:#3771c8;stroke-width:4;stroke-miterlimit:4;stroke-dasharray:none;stroke-dashoffset:0;stroke-opacity:1"
       sodipodi:type="star" />
    <path
       d="m 70.295248,123.4656 v -3.10025 q 2.284787,1.74389 5.029941,1.74389 3.68294,0 3.68294,-2.53657 0,-0.72222 -0.323962,-1.21544 -0.306911,-0.51083 -0.852532,-0.89836 -0.52857,-0.38754 -1.261747,-0.68699 -0.716129,-0.31707 -1.55161,-0.65176 -1.159443,-0.4756 -2.046077,-0.95121 -0.869583,-0.49322 -1.466357,-1.09213 -0.57972,-0.61653 -0.886634,-1.39159 -0.28986,-0.77507 -0.28986,-1.81435 0,-1.26829 0.562672,-2.23711 0.562671,-0.98645 1.500456,-1.6382 0.937785,-0.66938 2.13133,-1.00406 1.210596,-0.33469 2.489395,-0.33469 2.267738,0 4.058054,0.8103 v 2.92409 q -1.926722,-1.30351 -4.433167,-1.30351 -0.784331,0 -1.415204,0.19377 -0.630874,0.17615 -1.091242,0.51083 -0.443317,0.33469 -0.699077,0.81029 -0.238708,0.458 -0.238708,1.02168 0,0.7046 0.238708,1.1802 0.25576,0.47561 0.733179,0.84553 0.477417,0.36991 1.159443,0.66937 0.682027,0.29945 1.55161,0.65176 1.159443,0.45799 2.080179,0.95121 0.920734,0.4756 1.568659,1.09213 0.647924,0.59891 0.988938,1.39159 0.358064,0.79268 0.358064,1.88481 0,1.33874 -0.579723,2.32519 -0.562672,0.98644 -1.517508,1.6382 -0.954835,0.65175 -2.199534,0.96882 -1.244696,0.31708 -2.608749,0.31708 -2.694002,0 -4.671877,-1.07452 z"
       style="font-style:normal;font-variant:normal;font-weight:normal;font-stretch:normal;font-size:152.04px;line-height:1.25;font-family:'Segoe UI';-inkscape-font-specification:'Segoe UI';text-align:center;letter-spacing:0px;word-spacing:0px;text-anchor:middle;fill:#ffffff;fill-opacity:1;stroke:none;stroke-width:0.233444;stroke-opacity:1"
       id="s"
       inkscape:connector-curvature="0" />
    <path
       d="m 102.99839,124.54012 q -3.870496,0 -6.189383,-2.51896 -2.301838,-2.53656 -2.301838,-6.71133 0,-4.54468 2.404142,-7.09887 2.404139,-2.55418 6.496299,-2.55418 3.9046,0 6.08708,2.48372 2.19953,2.48373 2.19953,6.88749 0,4.31569 -2.37004,6.92271 -2.35299,2.58942 -6.32579,2.58942 z m 0.20461,-16.45246 q -2.694,0 -4.262663,1.90242 -1.56866,1.88482 -1.56866,5.21406 0,3.20594 1.585711,5.05552 1.585712,1.84958 4.245612,1.84958 2.71105,0 4.16036,-1.81435 1.46635,-1.81435 1.46635,-5.16121 0,-3.38209 -1.46635,-5.21406 -1.44931,-1.83196 -4.16036,-1.83196 z"
       style="font-style:normal;font-variant:normal;font-weight:normal;font-stretch:normal;font-size:152.04px;line-height:1.25;font-family:'Segoe UI';-inkscape-font-specification:'Segoe UI';text-align:center;letter-spacing:0px;word-spacing:0px;text-anchor:middle;fill:#ffffff;fill-opacity:1;stroke:none;stroke-width:0.233444;stroke-opacity:1"
       id="o"
       inkscape:connector-curvature="0" />
    <path
       d="m 134.8149,109.00364 q -0.73318,-0.5813 -2.11428,-0.5813 -1.79032,0 -3.00091,1.7439 -1.19355,1.74388 -1.19355,4.75606 v 9.19505 h -2.7963 v -18.03781 h 2.7963 v 3.71678 h 0.0682 q 0.59678,-1.90243 1.82442,-2.95933 1.22765,-1.07452 2.74516,-1.07452 1.09124,0 1.67096,0.24661 z"
       style="font-style:normal;font-variant:normal;font-weight:normal;font-stretch:normal;font-size:152.04px;line-height:1.25;font-family:'Segoe UI';-inkscape-font-specification:'Segoe UI';text-align:center;letter-spacing:0px;word-spacing:0px;text-anchor:middle;fill:#ffffff;fill-opacity:1;stroke:none;stroke-width:0.233444;stroke-opacity:1"
       id="path325"
       inkscape:connector-curvature="0" />
    <path
       d="m 76.765689,162.04529 q -0.988937,0.56368 -2.608749,0.56368 -4.586625,0 -4.586625,-5.28452 v -10.67472 h -3.000913 v -2.4661 h 3.000913 v -4.40377 l 2.796306,-0.93359 v 5.33736 h 4.399068 v 2.4661 h -4.399068 v 10.16389 q 0,1.81435 0.596774,2.58941 0.596771,0.77506 1.977876,0.77506 1.057139,0 1.824418,-0.59891 z"
       style="font-style:normal;font-variant:normal;font-weight:normal;font-stretch:normal;font-size:152.04px;line-height:1.25;font-family:'Segoe UI';-inkscape-font-specification:'Segoe UI';text-align:center;letter-spacing:0px;word-spacing:0px;text-anchor:middle;fill:#ffffff;fill-opacity:1;stroke:none;stroke-width:0.233444;stroke-opacity:1"
       id="path438"
       inkscape:connector-curvature="0" />
    <path
       d="m 102.58037,162.22144 h -2.796307 v -2.81841 h -0.0682 q -1.824421,3.24117 -5.370955,3.24117 -2.608749,0 -4.092155,-1.42682 -1.466357,-1.42682 -1.466357,-3.78724 0,-5.05552 5.763119,-5.88342 l 5.234549,-0.75745 q 0,-4.59753 -3.597686,-4.59753 -3.15437,0 -5.694915,2.2195 v -2.95933 q 2.574647,-1.69105 5.933624,-1.69105 6.155283,0 6.155283,6.72895 z m -2.796307,-9.1246 -4.211509,0.59891 q -1.943774,0.28184 -2.932711,1.00406 -0.988938,0.7046 -0.988938,2.51895 0,1.32113 0.903685,2.16665 0.920734,0.82791 2.438241,0.82791 2.08018,0 3.427182,-1.49728 1.36405,-1.51489 1.36405,-3.82246 z"
       style="font-style:normal;font-variant:normal;font-weight:normal;font-stretch:normal;font-size:152.04px;line-height:1.25;font-family:'Segoe UI';-inkscape-font-specification:'Segoe UI';text-align:center;letter-spacing:0px;word-spacing:0px;text-anchor:middle;fill:#ffffff;fill-opacity:1;stroke:none;stroke-width:0.233444;stroke-opacity:1"
       id="path435"
       inkscape:connector-curvature="0" />
    <path
       d="m 120.29599,159.61441 h -0.0682 v 2.60703 h -2.79631 v -26.70442 h 2.79631 v 11.83731 h 0.0682 q 2.06313,-3.59347 6.03593,-3.59347 3.35898,0 5.2516,2.43088 1.90967,2.41326 1.90967,6.48234 0,4.52707 -2.13133,7.2574 -2.13133,2.71272 -5.83132,2.71272 -3.46128,0 -5.23455,-3.02979 z m -0.0682,-7.27502 v 2.51896 q 0,2.23711 1.39815,3.80485 1.4152,1.55012 3.58064,1.55012 2.54054,0 3.9728,-2.00812 1.4493,-2.00811 1.4493,-5.58397 0,-3.01217 -1.347,-4.72083 -1.347,-1.70866 -3.64884,-1.70866 -2.43824,0 -3.92165,1.76151 -1.4834,1.74389 -1.4834,4.38614 z"
       style="font-style:normal;font-variant:normal;font-weight:normal;font-stretch:normal;font-size:152.04px;line-height:1.25;font-family:'Segoe UI';-inkscape-font-specification:'Segoe UI';text-align:center;letter-spacing:0px;word-spacing:0px;text-anchor:middle;fill:#ffffff;fill-opacity:1;stroke:none;stroke-width:0.233444;stroke-opacity:1"
       id="path432"
       inkscape:connector-curvature="0" />
    <path
       d="M 84.895196,196.24706 H 82.09889 v -26.70441 h 2.796306 z"
       style="font-style:normal;font-variant:normal;font-weight:normal;font-stretch:normal;font-size:152.04px;line-height:1.25;font-family:'Segoe UI';-inkscape-font-specification:'Segoe UI';text-align:center;letter-spacing:0px;word-spacing:0px;text-anchor:middle;fill:#ffffff;fill-opacity:1;stroke:none;stroke-width:0.233444;stroke-opacity:1"
       id="path399"
       inkscape:connector-curvature="0" />
    <path
       d="m 114.13706,187.95038 h -12.32762 q 0.0682,3.01217 1.56866,4.65037 1.50045,1.6382 4.12625,1.6382 2.94977,0 5.42211,-2.00812 v 2.71272 q -2.30184,1.72628 -6.08708,1.72628 -3.69999,0 -5.81427,-2.4485 -2.114279,-2.4661 -2.114279,-6.92271 0,-4.21 2.301839,-6.85226 2.31889,-2.65987 5.74606,-2.65987 3.42719,0 5.30276,2.28996 1.87557,2.28996 1.87557,6.35903 z m -2.86451,-2.4485 q -0.017,-2.50133 -1.1765,-3.89292 -1.14239,-1.39159 -3.18847,-1.39159 -1.97787,0 -3.35897,1.46205 -1.38111,1.46205 -1.70507,3.82246 z"
       style="font-style:normal;font-variant:normal;font-weight:normal;font-stretch:normal;font-size:152.04px;line-height:1.25;font-family:'Segoe UI';-inkscape-font-specification:'Segoe UI';text-align:center;letter-spacing:0px;word-spacing:0px;text-anchor:middle;fill:#ffffff;fill-opacity:1;stroke:none;stroke-width:0.233444;stroke-opacity:1"
       id="path396"
       inkscape:connector-curvature="0" />
  </g>
</svg>
